<?xml version="1.0" encoding="UTF-8"?>
<svg id="Layer_1" data-name="Layer 1" xmlns="http://www.w3.org/2000/svg" viewBox="0 0 40.85 39.19">
  <ellipse cx="20.42" cy="19.6" rx="20.05" ry="19.22" fill="#5b97a4" stroke="#fff" stroke-miterlimit="10" stroke-width=".75"/>
  <g>
    <path d="M19.73,27.74c-1.41-1.35-3.09-2.13-5.02-2.51-.96-.2-1.91-.26-2.89-.29-.48-.01-.85-.39-.85-.84v-12.7c0-.47.37-.81.85-.86,1.76.03,3.44.28,5.03,1.06,1.13.55,2.07,1.36,2.75,2.39.11.16.13.32.15.52v6.53s0,6.7,0,6.7Z" fill="#fff"/>
    <path d="M26.79,25.12c-2.18.33-4.11,1.1-5.68,2.63v-13.21c0-.21.04-.39.16-.56.69-1.05,1.67-1.87,2.84-2.43.93-.44,1.91-.72,2.94-.86.67-.09,1.32-.15,1.99-.14.44,0,.84.36.84.79v12.7c0,.48-.33.87-.85.89-.75.03-1.48.06-2.23.17Z" fill="#fff"/>
    <path d="M11.97,26.27c2.21.03,4.85.59,6.48,2.15-2.3-.48-4.54-.5-6.83-.22-.85.1-1.64.24-2.49.42-.44.09-1.05-.22-1.05-.71v-13.68c0-.39.41-.72.75-.74.28-.02.49,0,.76,0v1.48s0,8.53,0,8.53v.73c.02.56.3,1.08.72,1.45.46.4,1.03.58,1.64.59Z" fill="#fff"/>
    <path d="M29.12,28.19c-2.31-.27-4.46-.23-6.74.23.52-.49,1.1-.85,1.72-1.16.68-.32,1.37-.54,2.11-.7.88-.19,1.76-.28,2.66-.29.38,0,.71-.06,1.06-.22.76-.34,1.3-1.08,1.3-1.9v-10.66c.75-.03,1.24-.09,1.53.66v13.8c-.11.43-.57.76-1.03.67-.88-.17-1.72-.33-2.63-.44Z" fill="#fff"/>
  </g>
</svg>